<?xml version="1.0" encoding="UTF-8"?>
<svg width="224px" height="95px" viewBox="0 0 224 95" version="1.1" xmlns="http://www.w3.org/2000/svg" xmlns:xlink="http://www.w3.org/1999/xlink">
    <!-- Generator: Sketch 52.3 (67297) - http://www.bohemiancoding.com/sketch -->
    <title>Group 10</title>
    <desc>Created with Sketch.</desc>
    <defs>
        <polygon id="path-1" points="0 0.387484848 58.3868147 0.387484848 58.3868147 94.6666364 0 94.6666364"></polygon>
        <polygon id="path-3" points="0 105.939394 227.648788 105.939394 227.648788 0.386909091 0 0.386909091"></polygon>
        <polygon id="path-5" points="0.714054545 0.659149299 14.6184848 0.659149299 14.6184848 21.386422 0.714054545 21.386422"></polygon>
    </defs>
    <g id="Page-1" stroke="none" stroke-width="1" fill="none" fill-rule="evenodd">
        <g id="Главная-Copy" transform="translate(-54.000000, -26.000000)">
            <g id="Group-10" transform="translate(54.000000, 25.000000)">
                <g id="Group-7" transform="translate(0.000000, 0.764261)">
                    <path d="M56.5884485,56.7559939 C56.6782667,56.8884182 56.7669333,57.0208424 56.853297,57.1567212 L56.7174182,57.1567212 L56.7185697,57.1590242 C56.7957212,57.2776303 56.8694182,57.3973879 56.9431152,57.5171455 L56.9742061,57.5701152 L57.047903,57.6921758 L57.1020242,57.7819939 L57.1688121,57.898297 L57.2240848,57.9927212 L57.2897212,58.1124788 C58.7440848,60.7079939 59.5202061,63.104297 59.7965697,65.3762364 C59.8564485,65.9001758 59.8956,66.4310242 59.9117212,66.9676303 C60.0556606,73.2606606 56.5101455,78.6866 53.3066303,84.9427818 C51.2246909,89.0122364 51.6876,91.5743576 51.8142667,92.0856303 C50.9448727,91.5409636 46.8500848,88.6287818 47.8000848,82.5303576 C48.0154182,81.1566 48.4288121,79.8001152 48.9400848,78.4551455 L48.9585091,78.4332667 L48.9642667,78.4275091 L48.9757818,78.4136909 L48.9930545,78.3941152 L49.0103273,78.3722364 L49.0287515,78.3515091 L49.0425697,78.3353879 L49.0460242,78.3307818 L49.063297,78.3112061 L49.0805697,78.2904788 L49.0989939,78.2697515 L49.1162667,78.2490242 L49.1208727,78.2432667 L49.1335394,78.228297 L49.1508121,78.2075697 L49.1680848,78.1868424 L49.1853576,78.1672667 L49.1991758,78.1511455 L49.2037818,78.1465394 L49.2210545,78.1258121 L49.2383273,78.1050848 L49.2556,78.0843576 L49.2728727,78.0647818 L49.2774788,78.0590242 L49.291297,78.0440545 L49.3085697,78.0233273 L49.3258424,78.0037515 L49.3431152,77.9830242 L49.3557818,77.9680545 L49.3615394,77.962297 L49.3788121,77.9415697 L49.3949333,77.9208424 L49.4133576,77.9001152 L49.4306303,77.8805394 L49.4340848,77.8759333 L49.447903,77.8598121 L49.4651758,77.8390848 L49.4824485,77.8195091 L49.5008727,77.7987818 L49.5123879,77.7849636 L49.5181455,77.7780545 L49.5354182,77.7573273 L49.5526909,77.7377515 L49.5699636,77.7170242 L49.5872364,77.696297 L49.5895394,77.6939939 L49.6056606,77.6767212 L49.6229333,77.6559939 L49.6402061,77.6352667 L49.6574788,77.6156909 L49.6678424,77.6030242 L49.6747515,77.5949636 L49.6920242,77.5742364 L49.709297,77.5546606 L49.7277212,77.5339333 L49.7449939,77.5132061 L49.7461455,77.510903 L49.7622667,77.4936303 L49.7795394,77.472903 L49.7979636,77.4521758 L49.8140848,77.4326 L49.8244485,77.4210848 L49.8313576,77.4118727 L49.8486303,77.392297 L49.8670545,77.3715697 L49.8843273,77.3508424 L49.9016,77.3312667 L49.9016,77.3301152 L49.9188727,77.3116909 L49.9361455,77.2909636 L49.9534182,77.2702364 L49.9706909,77.2506606 L49.979903,77.2391455 L49.9879636,77.2299333 L50.0052364,77.2103576 L50.0225091,77.1896303 L50.0397818,77.1700545 L50.0582061,77.1481758 C51.3087515,75.6926606 52.5247515,74.2774485 53.5945091,72.8161758 C55.8929333,69.6771455 57.2091152,65.9727212 57.3323273,62.2706 C57.3346303,62.2210848 57.3357818,62.1704182 57.3369333,62.1197515 L57.3369333,62.1059333 L57.3369333,62.0967212 C57.3392364,62.0483576 57.3392364,61.9999939 57.3403879,61.9504788 L57.3403879,61.9355091 C57.3415394,61.888297 57.3415394,61.8410848 57.3426909,61.7938727 L57.3426909,61.7604788 L57.3426909,61.6234485 L57.3426909,61.5958121 C57.3415394,61.550903 57.3415394,61.5059939 57.3403879,61.4599333 L57.3403879,61.4265394 C57.3392364,61.3816303 57.3380848,61.3355697 57.3369333,61.2906606 L57.3369333,61.2630242 C57.3346303,61.2158121 57.3346303,61.1686 57.3323273,61.1202364 L57.3323273,61.1052667 C57.3311758,61.056903 57.3288727,61.0085394 57.3265697,60.9613273 L57.3265697,60.9498121 L57.3265697,60.9394485 C57.3231152,60.8968424 57.3208121,60.8530848 57.3185091,60.8093273 L57.3162061,60.7609636 L57.309297,60.634297 L57.3081455,60.6193273 L57.3081455,60.6135697 L57.2977818,60.4627212 L57.2966303,60.4512061 L57.2862667,60.3233879 L57.2828121,60.2692667 L57.271297,60.1506606 L57.2678424,60.106903 L57.2563273,59.9871455 L57.2517212,59.9422364 L57.237903,59.8190242 L57.2321455,59.7695091 L57.2194788,59.6635697 L57.2102667,59.5944788 L57.1964485,59.4850848 L57.195297,59.4701152 L57.1918424,59.4505394 L57.1757212,59.3365394 L57.1653576,59.266297 L57.1549939,59.194903 L57.1377212,59.0832061 L57.1296606,59.0348424 L57.1100848,58.9162364 L57.1020242,58.8667212 L57.0893576,58.7953273 L57.0743879,58.7101152 L57.0720848,58.6997515 L57.0582667,58.6237515 L57.0421455,58.5373879 L57.0260242,58.4579333 L57.0248727,58.4521758 L57.0076,58.3669636 L57.0064485,58.3635091 L56.9937818,58.3001758 L56.9742061,58.2057515 L56.9557818,58.126297 L56.9362061,58.0376303 L56.9189333,57.9616303 L56.9028121,57.8948424 L56.8809333,57.8027212 L56.8648121,57.7359333 L56.8383273,57.632297 L56.8245091,57.5758727 L56.7957212,57.4653273 L56.7807515,57.4146606 L56.7623273,57.3455697 L56.739297,57.2603576 L56.7369939,57.2557515 L56.7151152,57.176297 L56.6909333,57.0922364 L56.6897818,57.0876303 L56.6656,57.0081758 L56.6391152,56.9195091 L56.6183879,56.8538727 L56.5953576,56.7778727 L56.5884485,56.7559939 Z M50.4612364,40.9376303 C48.5508727,38.8672061 46.8846303,36.6413273 45.2966909,34.684903 C34.9560848,21.9399333 45.2068727,19.0507818 52.2138424,12.1140545 C50.777903,21.2766606 53.7303879,22.5951455 56.3454788,29.7379939 C53.9042667,15.5501758 47.4005091,11.9459333 71.5696606,1.8506 C68.4928121,5.21532727 67.1812364,6.90575152 67.0269333,13.0398727 C68.7058424,4.28720606 71.9784485,4.36205455 75.857903,0.70829697 C64.491297,19.2350242 77.8166303,31.7899939 58.1522061,53.0653879 C57.9829333,53.2208424 57.6616606,53.5697515 57.347297,53.9232667 C57.1734182,53.5398121 56.9857212,53.1598121 56.7830545,52.7867212 C57.575297,52.4032667 58.2846303,51.8620545 58.8742061,51.2022364 C59.9508727,49.9954485 60.6279636,48.3810242 60.6659636,46.612297 L60.6671152,46.5501152 L60.6671152,46.4787212 L60.6671152,46.4614485 L60.6763273,46.4614485 C60.6763273,44.6558727 59.9946303,43.0092061 58.8822667,41.7932061 C57.7376606,40.5415091 56.1405091,39.7561758 54.349903,39.7181758 L54.2865697,39.7170242 L54.235903,39.7170242 L54.2174788,39.7170242 L54.2174788,39.7078121 C52.829903,39.7078121 51.5356,40.1615091 50.4612364,40.9376303 Z" id="Fill-1" fill="#35285D"></path>
                    <g id="Group-5">
                        <mask id="mask-2" fill="white">
                            <use xlink:href="#path-1"></use>
                        </mask>
                        <g id="Clip-4"></g>
                        <path d="M54.3230727,51.1232424 C56.5420424,50.9585758 58.3338,48.9825758 58.3856182,46.5678485 C58.4408909,44.0448788 56.5742848,41.9986364 54.2182848,41.9986364 C51.8611333,41.9986364 49.9081636,44.0448788 49.8540424,46.5678485 C49.8436788,47.0203939 49.8978,47.4579697 50.0037394,47.8713636 C51.7978,48.6244545 53.2291333,49.7322121 54.3230727,51.1232424 M48.6599212,56.3096667 C41.4399212,58.3271212 42.9230727,64.6938485 34.6148909,62.1582121 C26.829497,59.7826364 20.4420424,55.5312424 18.9658,53.0842727 C24.5955576,54.014697 24.3468303,53.6784545 30.2932545,53.5057273 C18.4556788,52.7065758 16.2309515,52.6156061 10.1164061,44.5354242 C8.66434545,42.617 6.62616364,40.8563333 5.61858788,37.3119697 C10.8556788,40.1757879 22.3950121,41.9859697 26.5116788,42.3452424 C16.7836788,39.4906364 3.12555758,40.4832424 0.112042424,22.3238485 C-0.766563636,15.6554242 3.73125455,8.94439394 6.26573939,2.87590909 C10.9685273,11.3199697 17.1141636,16.5570606 23.7123455,22.1683939 C15.6471333,13.6667576 8.87392121,6.05754545 8.97755758,0.387484848 C18.0871939,19.4888182 41.1290121,26.7928788 48.6345879,48.3319697 C48.8752545,48.4148788 49.1055576,48.5058485 49.3243455,48.6037273 C51.1184061,49.4109394 52.5497394,50.5981515 53.6436788,52.0893636 C58.0862242,58.1486364 57.3584667,66.2230606 52.9711939,72.2143939 C50.4850727,75.6090606 47.1951939,78.7699697 44.5501636,82.745 C40.8676182,88.2803333 40.8722242,94.6666364 40.8722242,94.6666364 C40.8722242,94.6666364 35.5821636,87.9959091 38.2847697,78.4878485 C40.0327697,72.3399091 45.1754364,67.8536061 48.0956788,63.4951212 C49.5016788,61.3959091 50.0912545,59.3761515 50.1223455,57.363303 C50.128103,56.9107576 50.1039212,56.4731818 50.0532545,56.0494242 C49.5650121,56.0816667 49.0928909,56.1910606 48.6599212,56.3096667" id="Fill-3" fill="#35285D" mask="url(#mask-2)"></path>
                    </g>
                    <mask id="mask-4" fill="white">
                        <use xlink:href="#path-3"></use>
                    </mask>
                    <g id="Clip-6"></g>
                    <text id="KP" mask="url(#mask-4)" font-family="Tahoma-Bold, Tahoma" font-size="46.814" font-weight="bold" fill="#35285D">
                        <tspan x="59.3603758" y="80.5557723">KP</tspan>
                    </text>
                </g>
                <text id="К" font-family="Exo2-SemiBold, Exo 2 Semi Bold" font-size="14.817" font-weight="500" fill="#35285D">
                    <tspan x="137.324976" y="63.8476523">К</tspan>
                </text>
                <text id="а" font-family="Exo2-SemiBold, Exo 2 Semi Bold" font-size="14.817" font-weight="500" fill="#35285D">
                    <tspan x="147.36409" y="63.8476523">а</tspan>
                </text>
                <text id="д" font-family="Exo2-SemiBold, Exo 2 Semi Bold" font-size="14.817" font-weight="500" fill="#35285D">
                    <tspan x="156.43067" y="63.8476523">д</tspan>
                </text>
                <text id="р" font-family="Exo2-SemiBold, Exo 2 Semi Bold" font-size="14.817" font-weight="500" fill="#35285D">
                    <tspan x="166.333288" y="63.8476523">р</tspan>
                </text>
                <text id="о" font-family="Exo2-SemiBold, Exo 2 Semi Bold" font-size="14.817" font-weight="500" fill="#35285D">
                    <tspan x="175.962914" y="63.8476523">о</tspan>
                </text>
                <text id="в" font-family="Exo2-SemiBold, Exo 2 Semi Bold" font-size="14.817" font-weight="500" fill="#35285D">
                    <tspan x="185.33661" y="63.8476523">в</tspan>
                </text>
                <text id="ы" font-family="Exo2-SemiBold, Exo 2 Semi Bold" font-size="14.817" font-weight="500" fill="#35285D">
                    <tspan x="194.386128" y="63.8476523">ы</tspan>
                </text>
                <g id="Group-9" transform="translate(206.030303, 46.824867)">
                    <mask id="mask-6" fill="white">
                        <use xlink:href="#path-5"></use>
                    </mask>
                    <g id="Clip-8"></g>
                    <text id="й-" mask="url(#mask-6)" font-family="Exo2-SemiBold, Exo 2 Semi Bold" font-size="14.817" font-weight="500" fill="#35285D">
                        <tspan x="0.714054545" y="17.0227857">й </tspan>
                    </text>
                </g>
                <text id="р" font-family="Exo2-SemiBold, Exo 2 Semi Bold" font-size="14.817" font-weight="500" fill="#35285D">
                    <tspan x="137.3244" y="78.6413978">р</tspan>
                </text>
                <text id="е" font-family="Exo2-SemiBold, Exo 2 Semi Bold" font-size="14.817" font-weight="500" fill="#35285D">
                    <tspan x="146.954026" y="78.6413978">е</tspan>
                </text>
                <text id="з" font-family="Exo2-SemiBold, Exo 2 Semi Bold" font-size="14.817" font-weight="500" fill="#35285D">
                    <tspan x="155.832924" y="78.6413978">з</tspan>
                </text>
                <text id="е" font-family="Exo2-SemiBold, Exo 2 Semi Bold" font-size="14.817" font-weight="500" fill="#35285D">
                    <tspan x="163.995218" y="78.6413978">е</tspan>
                </text>
                <text id="р" font-family="Exo2-SemiBold, Exo 2 Semi Bold" font-size="14.817" font-weight="500" fill="#35285D">
                    <tspan x="172.874116" y="78.6413978">р</tspan>
                </text>
                <text id="в" font-family="Exo2-SemiBold, Exo 2 Semi Bold" font-size="14.817" font-weight="500" fill="#35285D">
                    <tspan x="182.503742" y="78.6413978">в</tspan>
                </text>
                <text id="Р" font-family="Exo2-Medium, Exo 2 Medium" font-size="7.154" font-weight="normal" fill="#35285D">
                    <tspan x="137.92883" y="92.7706388">Р</tspan>
                </text>
                <text id="е" font-family="Exo2-Medium, Exo 2 Medium" font-size="7.154" font-weight="normal" fill="#35285D">
                    <tspan x="143.003401" y="92.7706388">е</tspan>
                </text>
                <text id="с" font-family="Exo2-Medium, Exo 2 Medium" font-size="7.154" font-weight="normal" fill="#35285D">
                    <tspan x="147.715502" y="92.7706388">с</tspan>
                </text>
                <text id="п" font-family="Exo2-Medium, Exo 2 Medium" font-size="7.154" font-weight="normal" fill="#35285D">
                    <tspan x="152.032183" y="92.7706388">п</tspan>
                </text>
                <text id="у" font-family="Exo2-Medium, Exo 2 Medium" font-size="7.154" font-weight="normal" fill="#35285D">
                    <tspan x="157.024374" y="92.7706388">у</tspan>
                </text>
                <text id="б" font-family="Exo2-Medium, Exo 2 Medium" font-size="7.154" font-weight="normal" fill="#35285D">
                    <tspan x="161.67881" y="92.7706388">б</tspan>
                </text>
                <text id="л" font-family="Exo2-Medium, Exo 2 Medium" font-size="7.154" font-weight="normal" fill="#35285D">
                    <tspan x="166.596859" y="92.7706388">л</tspan>
                </text>
                <text id="и" font-family="Exo2-Medium, Exo 2 Medium" font-size="7.154" font-weight="normal" fill="#35285D">
                    <tspan x="171.506671" y="92.7706388">и</tspan>
                </text>
                <text id="к" font-family="Exo2-Medium, Exo 2 Medium" font-size="7.154" font-weight="normal" fill="#35285D">
                    <tspan x="176.58948" y="92.7706388">к</tspan>
                </text>
                <text id="и-" font-family="Exo2-Medium, Exo 2 Medium" font-size="7.154" font-weight="normal" fill="#35285D">
                    <tspan x="181.276867" y="92.7706388">и </tspan>
                </text>
                <text id="Т" font-family="Exo2-Medium, Exo 2 Medium" font-size="7.154" font-weight="normal" fill="#35285D">
                    <tspan x="188.188499" y="92.7706388">Т</tspan>
                </text>
                <text id="а" font-family="Exo2-Medium, Exo 2 Medium" font-size="7.154" font-weight="normal" fill="#35285D">
                    <tspan x="192.496941" y="92.7706388">а</tspan>
                </text>
                <text id="т" font-family="Exo2-Medium, Exo 2 Medium" font-size="7.154" font-weight="normal" fill="#35285D">
                    <tspan x="197.29966" y="92.7706388">т</tspan>
                </text>
                <text id="а" font-family="Exo2-Medium, Exo 2 Medium" font-size="7.154" font-weight="normal" fill="#35285D">
                    <tspan x="201.608102" y="92.7706388">а</tspan>
                </text>
                <text id="р" font-family="Exo2-Medium, Exo 2 Medium" font-size="7.154" font-weight="normal" fill="#35285D">
                    <tspan x="206.419058" y="92.7706388">р</tspan>
                </text>
                <text id="с" font-family="Exo2-Medium, Exo 2 Medium" font-size="7.154" font-weight="normal" fill="#35285D">
                    <tspan x="211.493629" y="92.7706388">с</tspan>
                </text>
                <text id="т" font-family="Exo2-Medium, Exo 2 Medium" font-size="7.154" font-weight="normal" fill="#35285D">
                    <tspan x="215.810309" y="92.7706388">т</tspan>
                </text>
                <text id="а" font-family="Exo2-Medium, Exo 2 Medium" font-size="7.154" font-weight="normal" fill="#35285D">
                    <tspan x="220.118752" y="92.7706388">а</tspan>
                </text>
            </g>
        </g>
    </g>
</svg>