<svg xmlns="http://www.w3.org/2000/svg" xmlns:xlink="http://www.w3.org/1999/xlink" width="279" height="80" viewBox="0 0 279 80">
    <defs>
        <path id="a" d="M0 .184h5.66v5.662H0z"/>
        <path id="c" d="M0 .991h5.66v5.661H0z"/>
        <path id="e" d="M0 .914h5.66v5.662H0z"/>
        <path id="g" d="M0 .105h5.66v5.661H0z"/>
    </defs>
    <g fill="none" fill-rule="evenodd">
        <path fill="#D8073B" d="M28 28a4 4 0 1 1-.001 8.001A4 4 0 0 1 28 28M53 13a4 4 0 1 1 .001 7.999A4 4 0 0 1 53 13M91 35a4 4 0 1 0-.001 7.999A4 4 0 0 0 91 35M66 21a4 4 0 1 0-.001 7.999A4 4 0 0 0 66 21M15 50a4 4 0 1 1 .001 7.999A4 4 0 0 1 15 50M41 36a4 4 0 1 1 .002 8 4 4 0 0 1-.003-8M53 28a4 4 0 1 1-.001 8.001A4 4 0 0 1 53 28M91 50a4 4 0 1 0 .001 8.001A4 4 0 0 0 91 50M78 43a4 4 0 1 0-.001 7.999A4 4 0 0 0 78 43M66 36a4 4 0 1 0-.001 7.999A4 4 0 0 0 66 36M53.5 44a2.5 2.5 0 1 1 0 5 2.5 2.5 0 0 1 0-5M40.5 51a2.5 2.5 0 1 1 .001 5 2.5 2.5 0 0 1-.002-5M27.5 59a2.499 2.499 0 1 1 0 5 2.499 2.499 0 1 1 0-5M15.5 65a2.5 2.5 0 1 1 .001 5 2.5 2.5 0 0 1-.002-5M65.5 51a2.499 2.499 0 1 0 2.5 2.5c0-1.381-1.118-2.5-2.5-2.5M78.5 59a2.5 2.5 0 1 0 0 5 2.5 2.5 0 0 0 0-5M90.5 65a2.498 2.498 0 0 0-2.5 2.5 2.5 2.5 0 1 0 2.5-2.5M53.5 0a2.5 2.5 0 1 1 0 5 2.5 2.5 0 0 1 0-5M40.5 7a2.5 2.5 0 1 1 0 5 2.5 2.5 0 0 1 0-5M27.5 15a2.5 2.5 0 1 1 0 5 2.5 2.5 0 0 1 0-5M15.5 21a2.5 2.5 0 1 1 0 5 2.5 2.5 0 0 1 0-5M65.5 7a2.499 2.499 0 1 0 0 5c1.382 0 2.5-1.119 2.5-2.5S66.882 7 65.5 7M78.5 15a2.501 2.501 0 1 0 .001 5.002 2.501 2.501 0 0 0 0-5.002M90.5 21a2.499 2.499 0 0 0-2.5 2.5 2.5 2.5 0 1 0 2.5-2.5"/>
        <g transform="translate(0 59)">
            <mask id="b" fill="#fff">
                <use xlink:href="#a"/>
            </mask>
            <path fill="#D8073B" d="M2.831.184a2.83 2.83 0 1 1-.001 5.66 2.83 2.83 0 0 1 .001-5.66" mask="url(#b)"/>
        </g>
        <g transform="translate(0 43)">
            <mask id="d" fill="#fff">
                <use xlink:href="#c"/>
            </mask>
            <path fill="#D8073B" d="M2.831.991a2.83 2.83 0 1 1-.001 5.66 2.83 2.83 0 0 1 .001-5.66" mask="url(#d)"/>
        </g>
        <g transform="translate(0 28)">
            <mask id="f" fill="#fff">
                <use xlink:href="#e"/>
            </mask>
            <path fill="#D8073B" d="M2.831.914a2.83 2.83 0 1 1-.001 5.66 2.83 2.83 0 0 1 .001-5.66" mask="url(#f)"/>
        </g>
        <g transform="translate(0 72)">
            <mask id="h" fill="#fff">
                <use xlink:href="#g"/>
            </mask>
            <path fill="#D8073B" d="M2.831.105a2.83 2.83 0 1 1 0 5.66 2.83 2.83 0 0 1 0-5.66" mask="url(#h)"/>
        </g>
        <path fill="#D8073B" d="M103.5 59c1.383 0 2.5 1.119 2.5 2.5s-1.117 2.5-2.5 2.5a2.5 2.5 0 1 1 0-5M103.5 44c1.383 0 2.5 1.119 2.5 2.5s-1.117 2.5-2.5 2.5a2.5 2.5 0 1 1 0-5M103.5 28c1.383 0 2.5 1.119 2.5 2.5s-1.117 2.5-2.5 2.5a2.5 2.5 0 1 1 0-5M103.5 72c1.383 0 2.5 1.119 2.5 2.5s-1.117 2.5-2.5 2.5a2.5 2.5 0 1 1 0-5M15.5 35c1.759 3.345 1.094 2.897 4.5 4.5-3.346 1.76-2.898 1.095-4.5 4.5-1.76-3.345-1.094-2.897-4.5-4.5 3.346-1.76 2.898-1.095 4.5-4.5M28.5 44l2.25 4L33 52h-9l2.25-4zM36 24.5l4.5-4.5 4.5 4.5-4.5 4.5zM74 30.666L76.666 28l1.335 1.333L79.334 28 82 30.666 80.665 32 82 33.332 79.334 36 78 34.667 76.666 36 74 33.332 75.335 32z"/>
        <path fill="#1A1A18" d="M118 24h11.047c2.84 0 4.982.737 6.438 2.215 1.103 1.118 1.654 2.5 1.654 4.142v.072c0 .761-.1 1.433-.3 2.018a5.831 5.831 0 0 1-.775 1.534 5.47 5.47 0 0 1-1.124 1.161 9.66 9.66 0 0 1-1.32.857c.729.263 1.389.566 1.988.91a6.43 6.43 0 0 1 1.55 1.233 5.031 5.031 0 0 1 1 1.679c.235.643.354 1.394.354 2.25v.071c0 1.12-.218 2.109-.652 2.966a5.856 5.856 0 0 1-1.848 2.142c-.797.572-1.758 1.006-2.885 1.303-1.124.298-2.367.447-3.729.447H118V24zm14.812 7.072c0-1.001-.37-1.781-1.11-2.34-.738-.559-1.81-.839-3.219-.839h-6.225v6.642h5.91c1.408 0 2.533-.28 3.377-.838.844-.56 1.267-1.411 1.267-2.555v-.07zm1.371 10.535c0-1.071-.415-1.9-1.248-2.482-.833-.585-2.104-.875-3.819-.875h-6.858v6.858h7.176c1.478 0 2.638-.286 3.482-.857.845-.573 1.267-1.43 1.267-2.572v-.072zM143.401 24h11.047c2.84 0 4.984.737 6.44 2.215 1.101 1.118 1.652 2.5 1.652 4.142v.072c0 .761-.1 1.433-.3 2.018a5.828 5.828 0 0 1-.773 1.534c-.316.441-.692.829-1.126 1.161a9.66 9.66 0 0 1-1.32.857c.729.263 1.39.566 1.989.91a6.398 6.398 0 0 1 1.548 1.233 5.035 5.035 0 0 1 1.003 1.679c.233.643.352 1.394.352 2.25v.071c0 1.12-.216 2.109-.65 2.966a5.888 5.888 0 0 1-1.848 2.142c-.799.572-1.76 1.006-2.886 1.303-1.125.298-2.368.447-3.73.447h-11.398V24zm14.813 7.072c0-1.001-.371-1.781-1.11-2.34-.737-.559-1.811-.839-3.218-.839h-6.227v6.642h5.91c1.408 0 2.534-.28 3.377-.838.844-.56 1.268-1.411 1.268-2.555v-.07zm1.37 10.535c0-1.071-.415-1.9-1.248-2.482-.833-.585-2.104-.875-3.817-.875h-6.86v6.858h7.178c1.476 0 2.638-.286 3.48-.857.845-.573 1.267-1.43 1.267-2.572v-.072zM168.802 24h18.26v3.928h-13.931v6.465h12.347v4h-12.347v6.677h14.107V49h-18.436V24zm23.572 0h9.711c1.432 0 2.726.195 3.888.59 1.16.392 2.145.956 2.956 1.695a7.488 7.488 0 0 1 1.864 2.644c.434 1.024.65 2.167.65 3.427v.072c0 1.404-.256 2.637-.773 3.697a7.686 7.686 0 0 1-2.111 2.66c-.892.715-1.934 1.257-3.131 1.626a12.953 12.953 0 0 1-3.836.553h-4.89V49h-4.328V24zm9.36 12.965c1.642 0 2.937-.417 3.888-1.245.949-.833 1.425-1.898 1.425-3.203v-.07c0-1.47-.483-2.578-1.444-3.33-.96-.742-2.251-1.117-3.87-1.117h-5.03v8.965h5.03zM235.649 24l-8.585 12.214L236 49h-5.1l-6.51-9.536L217.918 49h-4.96l8.9-12.714L213.31 24h5.1l6.087 9.035L230.69 24h4.959zM118.175 58.469h3.253c.479 0 .913.065 1.3.194.39.127.721.313.99.556.271.241.48.531.625.868.145.336.219.71.219 1.123v.024c0 .462-.088.866-.26 1.212-.173.349-.409.64-.707.874a3.142 3.142 0 0 1-1.049.533c-.4.122-.828.182-1.284.182h-1.637v2.636h-1.45V58.47zm3.134 4.254c.55 0 .983-.138 1.303-.41.317-.272.477-.622.477-1.05v-.023c0-.482-.162-.845-.484-1.091-.323-.245-.752-.367-1.296-.367h-1.684v2.94h1.684zm7.363 4.09c-.446 0-.865-.078-1.254-.235a3.025 3.025 0 0 1-1.69-1.67 3.358 3.358 0 0 1-.248-1.306v-.024c0-.445.074-.864.224-1.254.15-.39.36-.732.631-1.025.27-.293.59-.524.96-.692a2.933 2.933 0 0 1 1.226-.252c.493 0 .928.09 1.3.27.375.18.683.423.933.726.245.305.432.658.559 1.06.124.404.188.827.188 1.273a3.014 3.014 0 0 1-.025.399h-4.57c.077.507.281.895.606 1.165.325.27.72.404 1.184.404.353 0 .66-.062.92-.188.259-.124.514-.308.765-.551l.837.739c-.3.351-.655.633-1.067.844-.413.21-.905.316-1.479.316zm1.415-3.668a2.441 2.441 0 0 0-.154-.638 1.618 1.618 0 0 0-.318-.516 1.515 1.515 0 0 0-.476-.347 1.49 1.49 0 0 0-.63-.129c-.441 0-.805.15-1.091.45-.286.302-.462.694-.524 1.18h3.193zm5.726 3.667c-.464 0-.892-.084-1.284-.251a3.214 3.214 0 0 1-1.02-.687 3.21 3.21 0 0 1-.913-2.26v-.024a3.256 3.256 0 0 1 .919-2.28 3.214 3.214 0 0 1 2.32-.956c.292 0 .556.027.797.078.239.052.458.124.66.216.2.093.384.207.554.34.168.132.327.278.476.433l-.894.95a3.312 3.312 0 0 0-.702-.556c-.247-.144-.549-.218-.902-.218-.258 0-.497.054-.718.16a1.866 1.866 0 0 0-.95 1.048 2.18 2.18 0 0 0-.134.762v.023c0 .273.045.53.135.774.09.24.218.454.383.631.164.18.363.322.588.422.23.102.482.152.756.152.337 0 .635-.07.89-.21a3.38 3.38 0 0 0 .725-.55l.859.843a3.868 3.868 0 0 1-1.05.839c-.392.214-.89.321-1.495.321zm3.841-6.327h5.725v6.186h-1.424v-4.91h-2.864v4.91h-1.437v-6.186zm11.828 0h1.485l-2.474 6.35c-.126.32-.256.592-.389.814a2.051 2.051 0 0 1-.448.54 1.567 1.567 0 0 1-.542.298c-.195.063-.419.095-.67.095-.298 0-.564-.033-.796-.1a3.132 3.132 0 0 1-.677-.287l.483-1.043c.133.07.27.126.406.17.138.043.281.064.43.064a.824.824 0 0 0 .508-.152c.133-.102.257-.286.375-.55l-2.591-6.199h1.53l1.745 4.592 1.625-4.592zm5.55 6.327c-.487 0-.918-.08-1.288-.241a2.891 2.891 0 0 1-.927-.603 3.195 3.195 0 0 1-.749-1.196c-.167-.467-.252-1.046-.252-1.733v-.012c0-1.43.27-2.515.813-3.257.542-.743 1.387-1.207 2.532-1.395L159.4 58l.226 1.301-2.214.352c-.716.125-1.248.352-1.597.68-.35.328-.567.804-.655 1.428.251-.273.574-.492.967-.655a3.324 3.324 0 0 1 1.296-.247c.455 0 .86.07 1.218.21.358.141.66.337.907.587.248.251.437.547.566.89a3.2 3.2 0 0 1 .194 1.138v.012c0 .437-.078.845-.234 1.224a2.99 2.99 0 0 1-1.698 1.65c-.4.162-.848.242-1.343.242zm.025-1.207c.274 0 .522-.047.746-.141.226-.092.418-.226.58-.399.16-.172.285-.371.376-.602a2.08 2.08 0 0 0 .135-.757v-.01c0-.258-.042-.495-.125-.71a1.695 1.695 0 0 0-.346-.562 1.49 1.49 0 0 0-.554-.37 2.001 2.001 0 0 0-.73-.129c-.3 0-.564.047-.796.141a1.665 1.665 0 0 0-.972.968c-.087.221-.13.462-.13.72v.012c0 .264.046.51.137.738.09.226.216.42.376.587.161.162.352.29.57.38.221.088.465.134.733.134zm10.509 1.066h-1.556l-1.827-4.488-1.847 4.488h-1.51l2.699-6.234h1.342l2.699 6.234zm1.177-6.186h1.426v3.96l2.97-3.96h1.354v6.186h-1.424v-4.054l-3.03 4.054h-1.296v-6.186zm8.955 2.449h.707l1.978-2.449h1.757l-2.615 3.023 2.697 3.163h-1.719l-2.075-2.507h-.73v2.507h-1.438v-6.186h1.438v2.449zm7.223 3.866c-.29 0-.57-.04-.836-.124a2.122 2.122 0 0 1-.708-.361 1.785 1.785 0 0 1-.488-.598 1.784 1.784 0 0 1-.185-.827v-.022c0-.337.064-.63.19-.881.126-.25.301-.456.53-.62.228-.164.5-.288.819-.368a4.164 4.164 0 0 1 1.042-.124c.354 0 .66.023.92.07.259.047.51.11.754.188v-.153c0-.445-.131-.78-.396-1.008-.263-.226-.646-.34-1.147-.34-.353 0-.67.036-.944.106-.275.07-.552.164-.837.281l-.387-1.112a7.27 7.27 0 0 1 1.066-.365 5.314 5.314 0 0 1 1.29-.139c.927 0 1.614.23 2.062.69.227.228.396.5.505.82.111.322.165.684.165 1.09v3.668h-1.389v-.773c-.212.25-.483.462-.815.638-.328.176-.732.264-1.21.264zm.4-1.031c.235 0 .454-.03.661-.094.202-.062.377-.152.522-.27.145-.117.261-.258.349-.42.086-.166.13-.345.13-.54v-.423a4.012 4.012 0 0 0-1.415-.246c-.463 0-.823.09-1.078.271-.256.18-.384.432-.384.762v.024c0 .296.117.525.349.69.23.165.52.246.865.246zm4.713-5.284h1.438v2.413h2.874v-2.413h1.424v6.186h-1.424V64.21h-2.874v2.461h-1.438v-6.186zm10.392 6.327a3.188 3.188 0 0 1-2.304-.938 3.209 3.209 0 0 1-.913-2.26l.001-.024c0-.437.08-.854.241-1.248.162-.395.387-.738.677-1.031a3.214 3.214 0 0 1 2.32-.956c.292 0 .556.026.797.077.239.052.458.124.66.216.2.093.384.207.554.34.168.132.326.278.476.433l-.894.95a3.312 3.312 0 0 0-.702-.556c-.248-.144-.549-.218-.9-.218-.26 0-.5.054-.72.16-.22.105-.41.244-.57.421a1.893 1.893 0 0 0-.38.627 2.18 2.18 0 0 0-.134.762v.023c0 .273.045.53.134.774.091.24.22.454.384.631.165.18.362.322.588.422.229.102.482.152.756.152.337 0 .635-.07.89-.21a3.38 3.38 0 0 0 .725-.55l.859.843a3.868 3.868 0 0 1-1.05.839c-.392.214-.89.321-1.495.321zm5.278-3.878h.707l1.98-2.449h1.755l-2.615 3.023 2.697 3.163h-1.72l-2.074-2.507h-.73v2.507h-1.437v-6.186h1.437v2.449zm5.538-2.449h1.424v3.96l2.97-3.96h1.356v6.186h-1.426v-4.054l-3.028 4.054h-1.296v-6.186zm7.516 0h1.427v3.96l2.968-3.96h1.354v6.186h-1.424v-4.054l-3.028 4.054h-1.297v-6.186zm2.865-.762c-.566 0-1.034-.149-1.403-.445-.369-.297-.578-.715-.626-1.255h.99c.07.211.188.384.347.516.163.134.392.2.692.2.296 0 .527-.066.688-.2.16-.132.277-.305.347-.516h.99c-.048.54-.256.958-.624 1.255-.37.296-.837.445-1.401.445zm9.623 3.21h.707l1.98-2.448h1.757l-2.617 3.023 2.7 3.163h-1.722l-2.073-2.507h-.732v2.507h-1.436v-6.186h1.436v2.449zm8.212 3.88c-.47 0-.908-.085-1.313-.252a3.28 3.28 0 0 1-1.048-.687 3.03 3.03 0 0 1-.688-1.02 3.125 3.125 0 0 1-.25-1.24v-.024c0-.445.085-.864.255-1.254a3.245 3.245 0 0 1 1.744-1.724c.404-.17.845-.257 1.325-.257.479 0 .921.085 1.326.252a3.21 3.21 0 0 1 1.737 1.71c.165.387.248.804.248 1.25v.023c0 .437-.084.85-.254 1.243-.169.39-.401.731-.696 1.025a3.29 3.29 0 0 1-1.054.696c-.408.173-.85.258-1.332.258zm.025-1.244c.29 0 .55-.051.783-.157.233-.105.43-.246.595-.422.165-.176.291-.382.377-.621.087-.238.13-.49.13-.756v-.023c0-.273-.048-.53-.142-.774a1.873 1.873 0 0 0-1.768-1.22 1.84 1.84 0 0 0-1.366.582 1.76 1.76 0 0 0-.377.627c-.087.24-.13.495-.13.762v.023c0 .273.048.53.142.767a1.891 1.891 0 0 0 .997 1.055c.23.106.485.157.76.157zm4.747-5.084h1.438v2.413h2.876v-2.413h1.425v6.186h-1.425V64.21h-2.876v2.461h-1.438v-6.186zm8.943 2.449h.707l1.98-2.449h1.757L255 63.508l2.698 3.163h-1.72l-2.074-2.507h-.731v2.507h-1.438v-6.186h1.438v2.449zm9.79-2.449h1.485l-2.473 6.35c-.127.32-.256.592-.39.814a2.051 2.051 0 0 1-.447.54 1.567 1.567 0 0 1-.543.298c-.195.063-.419.095-.67.095-.3 0-.564-.033-.796-.1a3.168 3.168 0 0 1-.677-.287l.483-1.043c.133.07.27.126.406.17.138.043.281.064.431.064a.82.82 0 0 0 .507-.152c.133-.102.258-.286.375-.55l-2.591-6.199h1.53l1.745 4.592 1.625-4.592zm2.7 0h1.437v1.03c.228-.32.51-.593.847-.819.339-.228.763-.341 1.273-.341.362 0 .717.07 1.068.21.348.141.658.349.924.624.266.273.483.607.648 1.006.165.399.246.856.246 1.372v.023c0 .516-.079.973-.24 1.37-.16.398-.376.735-.647 1.008a2.814 2.814 0 0 1-1.999.832c-.517 0-.944-.109-1.285-.328a3.265 3.265 0 0 1-.835-.762v2.837h-1.438v-8.062zm3.215 5.084c.245 0 .474-.046.69-.14.216-.094.405-.225.565-.392.161-.168.29-.375.384-.621a2.29 2.29 0 0 0 .141-.826v-.023c0-.297-.047-.568-.141-.816a1.865 1.865 0 0 0-.39-.626 1.743 1.743 0 0 0-1.249-.54 1.741 1.741 0 0 0-1.271.546 2.009 2.009 0 0 0-.396.627 2.15 2.15 0 0 0-.146.809v.023c0 .296.049.566.146.809.098.241.231.45.396.626s.357.31.578.404c.219.094.45.14.693.14zm7.576 1.243c-.461 0-.89-.084-1.285-.251a3.119 3.119 0 0 1-1.69-1.706 3.24 3.24 0 0 1-.241-1.242v-.023c0-.437.08-.854.24-1.248.162-.395.39-.738.68-1.031a3.216 3.216 0 0 1 2.322-.956c.29 0 .555.026.792.077.241.052.462.124.662.216.199.093.384.207.552.34.17.132.329.278.479.433l-.896.95a3.304 3.304 0 0 0-.7-.556c-.248-.144-.548-.218-.902-.218-.259 0-.5.054-.719.16a1.832 1.832 0 0 0-.948 1.048c-.09.24-.136.495-.136.762v.023c0 .273.046.53.136.774.09.24.218.454.383.631.165.18.36.322.59.422.226.102.477.152.752.152.338 0 .635-.07.89-.21.256-.141.496-.325.725-.55l.86.843a3.893 3.893 0 0 1-1.049.839c-.392.214-.892.321-1.497.321zM118 71.938h1.495l1.908 2.884 1.91-2.884h1.485v6.188h-1.403v-4.101l-1.992 2.94h-.035l-1.979-2.917v4.078H118v-6.188zm11.533 6.329c-.472 0-.91-.084-1.314-.253a3.248 3.248 0 0 1-1.047-.685 3.03 3.03 0 0 1-.689-1.02 3.125 3.125 0 0 1-.249-1.24v-.024a3.199 3.199 0 0 1 .95-2.28 3.351 3.351 0 0 1 2.373-.956c.48 0 .922.086 1.326.253a3.186 3.186 0 0 1 1.985 2.96v.023c0 .437-.085.85-.254 1.242-.168.39-.4.732-.695 1.023a3.275 3.275 0 0 1-1.054.699c-.41.172-.854.258-1.332.258zm.023-1.241c.292 0 .553-.054.785-.16.23-.105.428-.245.594-.421.165-.176.29-.384.378-.622.087-.237.13-.49.13-.755v-.023c0-.275-.048-.531-.142-.774a2.003 2.003 0 0 0-.394-.633 1.91 1.91 0 0 0-.603-.427 1.835 1.835 0 0 0-.771-.16 1.84 1.84 0 0 0-1.366.582 1.76 1.76 0 0 0-.377.626c-.088.241-.13.496-.13.762v.024c0 .273.047.529.142.767a1.914 1.914 0 0 0 .995 1.055c.23.105.485.159.76.159zm10.556 1.1h-1.554l-1.825-4.488-1.85 4.488h-1.51l2.7-6.233h1.344l2.695 6.233zm3.808.14a3.367 3.367 0 0 1-2.363-.937 3.055 3.055 0 0 1-.689-1.02 3.153 3.153 0 0 1-.247-1.24v-.024c0-.446.084-.864.252-1.255a3.226 3.226 0 0 1 1.745-1.721c.404-.173.847-.26 1.325-.26.48 0 .921.086 1.325.253.404.168.755.399 1.05.692.294.293.523.633.688 1.02.165.385.248.802.248 1.247v.024c0 .437-.085.85-.253 1.242a3.219 3.219 0 0 1-1.751 1.722 3.381 3.381 0 0 1-1.33.258zm.023-1.24c.291 0 .552-.054.785-.16.229-.105.428-.245.593-.421.166-.176.29-.384.378-.622.085-.237.128-.49.128-.755v-.023c0-.275-.045-.531-.141-.774a1.884 1.884 0 0 0-.995-1.06 1.84 1.84 0 0 0-.771-.16 1.835 1.835 0 0 0-1.366.582 1.763 1.763 0 0 0-.379.626 2.256 2.256 0 0 0-.128.762v.024c0 .273.046.529.14.767.094.24.227.447.396.626.168.18.368.323.6.429.231.105.486.159.76.159zm10.52-.178h.708v2.825h-1.296v-1.559h-4.747v1.56h-1.297v-2.826h.706l2.216-4.955h1.495l2.216 4.955zm-4.488.047h3.017l-1.497-3.562-1.52 3.562zm7.777-3.046h1.449c.76 0 1.365.183 1.808.55.445.368.667.887.667 1.558v.014c0 .655-.222 1.179-.667 1.569-.443.392-1.081.586-1.915.586h-2.77v-6.188h1.428v1.911zm-.013 3.106h1.332c.793 0 1.19-.324 1.19-.973v-.011a.905.905 0 0 0-.294-.704c-.197-.18-.492-.27-.884-.27h-1.344v1.958zm4.925 1.17h1.426v-6.187h-1.426v6.186zm5.739-4.112l1.448-2.075h1.52l-2.19 3.025 2.283 3.163h-1.552l-1.534-2.204-1.52 2.204h-1.518l2.273-3.152-2.19-3.036h1.554l1.426 2.075zm13.984 4.113h-1.554l-1.827-4.488-1.85 4.488h-1.508l2.698-6.233h1.344l2.697 6.233zm1.179-6.188h1.426V75.9l2.967-3.962h1.356v6.188h-1.427v-4.054l-3.026 4.054h-1.296v-6.188zm13.536 4.91h.708v2.825h-1.297v-1.559h-4.747v1.56h-1.295v-2.826h.706l2.214-4.955h1.497l2.214 4.955zm-4.489.047h3.018l-1.497-3.562-1.52 3.562zm8.967 1.372c-.446 0-.866-.079-1.255-.235a3.046 3.046 0 0 1-1.012-.656 3.025 3.025 0 0 1-.678-1.013 3.358 3.358 0 0 1-.248-1.307v-.023c0-.445.074-.864.224-1.254.148-.39.359-.732.632-1.025.269-.293.589-.524.96-.692a2.93 2.93 0 0 1 1.224-.253c.495 0 .929.09 1.301.27.374.18.684.422.933.727.246.304.431.66.56 1.06.124.403.188.827.188 1.272 0 .062-.004.128-.007.193-.003.067-.01.136-.019.206h-4.571c.079.507.28.896.608 1.166.325.27.72.403 1.183.403.354 0 .66-.062.92-.186.259-.125.513-.31.766-.552l.835.738a3.431 3.431 0 0 1-1.066.844c-.412.211-.904.317-1.478.317zm1.414-3.668a2.54 2.54 0 0 0-.153-.64 1.64 1.64 0 0 0-.318-.514 1.515 1.515 0 0 0-.477-.346 1.49 1.49 0 0 0-.63-.13c-.44 0-.804.151-1.09.453-.287.3-.462.693-.524 1.177h3.192zm2.84-2.66h1.437v1.03c.228-.32.51-.592.847-.82.339-.226.763-.34 1.273-.34.362 0 .717.07 1.068.213.348.139.656.347.924.62s.483.61.647 1.008c.166.398.249.855.249 1.371v.024c0 .515-.08.973-.242 1.37a2.995 2.995 0 0 1-.649 1.008c-.27.273-.579.48-.924.621-.345.14-.702.211-1.073.211-.518 0-.946-.109-1.285-.328a3.235 3.235 0 0 1-.835-.762V80h-1.438v-8.062zm3.215 5.087a1.747 1.747 0 0 0 1.256-.534c.16-.168.288-.376.381-.622.096-.246.141-.52.141-.825v-.024c0-.296-.045-.57-.141-.815a1.82 1.82 0 0 0-.387-.627 1.736 1.736 0 0 0-2.521.007 1.91 1.91 0 0 0-.394.626c-.1.243-.148.513-.148.81v.023c0 .296.049.566.148.807.096.243.227.452.394.628a1.743 1.743 0 0 0 1.271.546zm7.66 1.24c-.473 0-.91-.083-1.315-.252a3.255 3.255 0 0 1-1.049-.685 3.08 3.08 0 0 1-.689-1.02 3.153 3.153 0 0 1-.247-1.24v-.024c0-.446.084-.864.254-1.255a3.222 3.222 0 0 1 1.743-1.721c.404-.173.847-.26 1.325-.26s.921.086 1.325.253a3.183 3.183 0 0 1 1.74 1.712c.163.385.246.802.246 1.247v.024c0 .437-.085.85-.253 1.242-.168.39-.4.732-.694 1.023a3.283 3.283 0 0 1-1.056.699c-.409.172-.852.258-1.33.258zm.022-1.24c.291 0 .552-.054.785-.16.23-.105.43-.245.594-.421.165-.176.29-.384.377-.622a2.21 2.21 0 0 0 .128-.755v-.023c0-.275-.045-.531-.141-.774a1.896 1.896 0 0 0-.993-1.06 1.84 1.84 0 0 0-.772-.16 1.845 1.845 0 0 0-1.367.581 1.763 1.763 0 0 0-.379.627 2.298 2.298 0 0 0-.128.762v.024c0 .273.047.529.14.767a1.95 1.95 0 0 0 .997 1.055c.232.105.485.159.76.159zm4.749-5.088h3.169c.66 0 1.185.14 1.572.417.39.278.585.67.585 1.177v.012c0 .367-.091.658-.272.874-.181.215-.417.38-.707.498.377.117.677.288.901.514.224.228.337.55.337.963v.01c0 .281-.059.53-.177.75-.12.22-.283.4-.495.546a2.29 2.29 0 0 1-.761.322c-.293.07-.618.105-.972.105h-3.18v-6.188zm2.886 2.567c.353 0 .616-.072.783-.217a.707.707 0 0 0 .254-.568v-.012a.67.67 0 0 0-.254-.532c-.167-.144-.418-.213-.748-.206h-1.519v1.535h1.484zm-1.484 2.591h1.696c.353 0 .625-.069.813-.206a.675.675 0 0 0 .283-.58v-.013a.708.708 0 0 0-.288-.586c-.192-.147-.481-.218-.867-.21h-1.637v1.595z"/>
    </g>
</svg>
