<svg xmlns="http://www.w3.org/2000/svg" xmlns:xlink="http://www.w3.org/1999/xlink" width="218" height="160" viewBox="0 0 218 160">
    <defs>
        <path id="a" d="M0 .791h11.21V12H0z"/>
        <path id="c" d="M.783.791h11.209V12H.782z"/>
    </defs>
    <g fill="none" fill-rule="evenodd">
        <path fill="#B90F00" d="M57.537 57.59a8.071 8.071 0 0 1 0 16.14 8.07 8.07 0 1 1 0-16.14M109.747 27.581a8.07 8.07 0 1 1-.001 16.141 8.07 8.07 0 0 1 .001-16.14M186.854 72.596a8.07 8.07 0 1 0 0 16.14 8.07 8.07 0 0 0 0-16.14M134.644 42.587a8.07 8.07 0 1 0 .002 16.14 8.07 8.07 0 0 0-.002-16.14M31.432 103.211a8.07 8.07 0 1 1 0 16.14 8.07 8.07 0 0 1 0-16.14M83.642 73.201a8.07 8.07 0 1 1 0 16.14 8.07 8.07 0 0 1 0-16.14M109.747 58.196a8.07 8.07 0 1 1-.001 16.141 8.07 8.07 0 0 1 .001-16.141M186.854 103.211a8.07 8.07 0 1 0 0 16.14 8.07 8.07 0 0 0 0-16.14M160.75 88.206a8.07 8.07 0 1 0 0 16.14 8.07 8.07 0 0 0 0-16.14M134.644 73.201a8.07 8.07 0 1 0 .002 16.141 8.07 8.07 0 0 0-.002-16.14M109.747 90.563a5.605 5.605 0 1 1 0 11.21 5.605 5.605 0 0 1 0-11.21M83.642 104.742a5.605 5.605 0 1 1 0 11.21 5.605 5.605 0 0 1 0-11.21M57.537 121.265a5.605 5.605 0 1 1-.002 11.208 5.605 5.605 0 0 1 .002-11.208M31.432 134.188a5.604 5.604 0 1 1 0 11.21 5.606 5.606 0 0 1 0-11.21M134.33 104.742a5.605 5.605 0 1 0 0 11.21 5.605 5.605 0 0 0 0-11.21M160.75 121.265a5.605 5.605 0 1 0 0 11.208 5.605 5.605 0 0 0 0-11.208M186.54 134.188a5.604 5.604 0 1 0 0 11.21 5.606 5.606 0 0 0 0-11.21M109.747 0a5.605 5.605 0 1 1 0 11.21 5.605 5.605 0 0 1 0-11.21M83.642 14.18a5.605 5.605 0 1 1 0 11.21 5.605 5.605 0 0 1 0-11.21M57.537 30.702a5.605 5.605 0 1 1-.002 11.21 5.605 5.605 0 0 1 .002-11.21M31.432 43.626a5.604 5.604 0 1 1 0 11.21 5.606 5.606 0 0 1 0-11.21M134.33 14.18a5.605 5.605 0 1 0 0 11.21 5.605 5.605 0 0 0 0-11.21M160.75 30.702a5.604 5.604 0 1 0 0 11.21 5.606 5.606 0 0 0 0-11.21M186.54 43.626a5.604 5.604 0 1 0 0 11.21 5.606 5.606 0 0 0 0-11.21M5.604 121.265a5.604 5.604 0 1 1 .002 11.209 5.604 5.604 0 0 1-.002-11.209M5.604 89.697a5.606 5.606 0 1 1-.001 11.211 5.606 5.606 0 0 1 .001-11.211M5.604 58.36a5.605 5.605 0 1 1 0 11.21 5.605 5.605 0 0 1 0-11.21"/>
        <g transform="translate(0 148.036)">
            <mask id="b" fill="#fff">
                <use xlink:href="#a"/>
            </mask>
            <path fill="#B90F00" d="M5.604.791a5.605 5.605 0 1 1 0 11.21 5.605 5.605 0 0 1 0-11.21" mask="url(#b)"/>
        </g>
        <path fill="#B90F00" d="M212.387 121.265a5.605 5.605 0 1 1 0 11.208 5.605 5.605 0 0 1 0-11.208M212.387 89.697a5.605 5.605 0 1 1 0 11.21 5.605 5.605 0 0 1 0-11.21M212.387 58.36a5.604 5.604 0 1 1 0 11.21 5.605 5.605 0 0 1 0-11.21"/>
        <g transform="translate(206 148.036)">
            <mask id="d" fill="#fff">
                <use xlink:href="#c"/>
            </mask>
            <path fill="#B90F00" d="M6.387.791A5.604 5.604 0 1 1 6.388 12 5.604 5.604 0 0 1 6.387.79" mask="url(#d)"/>
        </g>
        <path fill="#B90F00" d="M31.432 71.526c3.7 7.028 2.3 6.086 9.453 9.453-7.028 3.699-6.087 2.299-9.453 9.452-3.699-7.028-2.299-6.086-9.452-9.452 7.027-3.7 6.086-2.3 9.452-9.453M57.537 89.492l4.622 8.007 4.622 8.007H48.291l4.623-8.007zM74.102 50.656l9.54-9.539 9.54 9.54-9.54 9.538zM152.816 63.017l5.288-5.29 2.645 2.646 2.644-2.645 5.29 5.289-2.645 2.644 2.645 2.645-5.29 5.288-2.644-2.644-2.645 2.644-5.288-5.288 2.644-2.644z"/>
    </g>
</svg>
