<svg xmlns="http://www.w3.org/2000/svg" xmlns:xlink="http://www.w3.org/1999/xlink" width="54" height="54" viewBox="0 0 54 54">
    <defs>
        <path id="a" d="M0 .05h25.947V22H0z"/>
    </defs>
    <g fill="none" fill-rule="evenodd">
        <circle cx="27" cy="27" r="27" fill="#35285d"/>
        <g transform="translate(12 15)">
            <mask id="b" fill="#fff">
                <use xlink:href="#a"/>
            </mask>
            <path fill="#FEFEFE" d="M25.947.828l-4.103 20.258s-.574 1.405-2.153.73l-9.47-7.108-3.444-1.63-5.796-1.91s-.89-.309-.976-.983c-.086-.675 1.004-1.04 1.004-1.04L24.053.295s1.894-.815 1.894.533" mask="url(#b)"/>
        </g>
        <path fill="#812DBD" d="M21.768 36s-.282-.026-.633-1.116c-.35-1.09-2.3-6.73-2.3-6.73l14.352-8.937s.819-.488.79 0c0 0 .146.086-.293.488a10367.8 10367.8 0 0 1-11.087 9.91"/>
        <path fill="#FEFEFE" d="M26.193 32.604l-3.63 3.275s-.269.209-.563.078l.563-6.043 3.63 2.69z"/>
    </g>
</svg>
