<svg xmlns="http://www.w3.org/2000/svg" width="32" height="18" viewBox="0 0 32 18">
    <path fill="#812DBD" fill-rule="evenodd" d="M15.657 17.61h1.912s.578-.062.873-.37c.272-.282.263-.813.263-.813s-.037-2.486 1.154-2.853c1.174-.36 2.682 2.403 4.28 3.466 1.208.804 2.127.628 2.127.628l4.273-.058s2.236-.134 1.176-1.836c-.087-.14-.618-1.26-3.178-3.561-2.68-2.41-2.32-2.02.907-6.187 1.966-2.538 2.752-4.088 2.506-4.751C31.716.643 30.27.81 30.27.81L25.46.839s-.357-.048-.621.106c-.259.15-.425.5-.425.5s-.762 1.964-1.777 3.634c-2.143 3.524-3 3.71-3.35 3.492-.815-.51-.61-2.05-.61-3.143 0-3.415.534-4.84-1.042-5.208-.523-.122-.909-.203-2.246-.216-1.717-.017-3.17.005-3.993.395-.547.26-.97.839-.712.872.318.041 1.038.188 1.42.692.493.65.476 2.109.476 2.109s.283 4.02-.662 4.52c-.648.342-1.538-.357-3.448-3.555C7.49 3.4 6.75 1.59 6.75 1.59s-.142-.338-.396-.52c-.309-.219-.74-.288-.74-.288L1.043.81s-.686.018-.938.307c-.225.258-.018.79-.018.79s3.58 8.112 7.633 12.2c3.717 3.75 7.937 3.503 7.937 3.503"/>
</svg>
