<svg xmlns="http://www.w3.org/2000/svg" width="98" height="110" viewBox="0 0 98 110">
    <g fill="#812DBD" fill-rule="evenodd">
        <path fill-rule="nonzero" d="M80.11 79.55c3.666-14.258 22.807-21.318 16.697-50.377C90.7.116 56.415-2.847 38.705 1.746 20.349 6.506 5.768 26.01 10.609 42.328c.374 1.26.152 2.61-.561 3.714-2.24 3.462-8.25 11.016-9.872 15.447a2.893 2.893 0 0 0 1.973 3.791c.516.137 3.683 1.387 4.094 1.518 4.224 1.345 3.41 10.693 3.41 19.268 0 8.962 9.502 7.74 12.625 7.062 3.122-.68 10.182-1.31 10.182 7.196 0 1.136.034 2.052.085 2.788a4.389 4.389 0 0 0 2.809 3.78c6.276 2.417 24.456 6.19 46.417-1.664a2.288 2.288 0 0 0 1.267-3.178c-2.072-4.121-5.654-11.895-2.928-22.5zm-7.045-13.38c-4.913 2.557-8.72-.408-10.636-2.539a8.717 8.717 0 0 1-8.966-1.148c-.053.18-6.679 1.704-7.836-2.911.106.002.208.013.316.013.11 0 .224-.001.336-.005 4.103-.117 8.049-2.34 11.73-6.61a1.712 1.712 0 1 0-2.592-2.237c-3.013 3.494-6.106 5.318-9.194 5.422-.914.03-1.762-.1-2.527-.312-.214-.069-.422-.127-.644-.204-.226-.078-.43-.17-.64-.256-1.691-.747-2.73-1.764-2.755-1.788-.042-.044-.091-.077-.137-.116-2.292-2.382-2.23-5.644-1.83-7.82-8.19.91-12.051-2.11-13.873-5.049a9.238 9.238 0 0 0 2.2-.538c2.217-.862 3.88-2.543 4.943-4.994a1.712 1.712 0 0 0-3.14-1.362c-.693 1.598-1.683 2.631-3.029 3.158-1.212.477-2.537.473-3.66.313-2.632-1.3-4.448-4.002-4.448-7.138a7.969 7.969 0 0 1 7.273-7.937 4.03 4.03 0 0 1-.478-2.69 4.054 4.054 0 0 1 3.395-3.309c.14-.02.275-.014.412-.02.533 1.617 1.621 3.836 3.725 4.716.596.25 1.214.374 1.853.374 1.333 0 2.759-.54 4.259-1.617a1.711 1.711 0 1 0-1.996-2.78c-.817.585-1.964 1.208-2.79.867-.931-.387-1.584-1.868-1.914-3.013a6.924 6.924 0 0 1 9.863-2.384 6.933 6.933 0 0 1 6.506-4.548c1.64 0 3.143.572 4.33 1.522a6.927 6.927 0 0 1 11.345-.093 5.863 5.863 0 0 1 3.022-.839 5.9 5.9 0 0 1 5.53 3.85 5.09 5.09 0 0 1 2.736-.8 5.117 5.117 0 0 1 5.117 5.119c0 .109-.01.215-.016.322a3.64 3.64 0 0 1 2.318-.23 3.638 3.638 0 0 1 2.495 5.035c.075-.003.147-.01.222-.01 2.5 0 4.527 2.027 4.527 4.528 0 .845-.247 1.627-.651 2.304-2.87-.43-6.412.299-9.19 4.255a1.712 1.712 0 1 0 2.8 1.967c3.4-4.842 7.902-2.25 8.41-1.934.035.021.071.034.105.052a14.2 14.2 0 0 1 1.97 7.232c0 4.339-1.938 8.223-4.993 10.839a6.538 6.538 0 0 1 .034 3.595 6.642 6.642 0 0 1-4.789 4.664 6.494 6.494 0 0 1-3.768-.191c-.374 2.671-1.794 5.46-5.28 7.274z"/>
        <path d="M46.639 28.388c-2.767 3.008-3.68 7.608-2.27 11.446a1.712 1.712 0 1 0 3.213-1.18c-.98-2.664-.345-5.858 1.575-7.947a1.712 1.712 0 0 0-2.518-2.32zM78.894 22.555c-2.198-3.991-5.738-5.12-8.999-5.033-.255-1.182-.755-2.9-1.695-4.412a1.71 1.71 0 1 0-2.906 1.81c.633 1.018 1.002 2.22 1.207 3.108-.945.258-1.795.582-2.484.919a1.713 1.713 0 0 0 1.505 3.076c.294-.145 7.258-3.471 10.373 2.185a1.712 1.712 0 1 0 2.999-1.653zM63.344 40.95c.855 3.27 3.156 5.287 6.315 5.536a1.712 1.712 0 0 0 .27-3.414c-1.024-.08-1.799-.452-2.372-1.132-1.002-1.194-1.131-3.039-1.118-3.516a1.714 1.714 0 0 0-1.648-2.092c-5.9-.07-6.978-5.666-7.023-5.913a1.712 1.712 0 0 0-3.374.578c.462 2.742 2.863 7.742 8.676 8.625.057.406.148.85.274 1.327zM51.467 11.662a1.712 1.712 0 0 0-1.083 2.165c.668 2.007.607 3.59-.19 4.84-1.59 2.497-5.627 3.001-5.707 3.01a1.713 1.713 0 0 0 .376 3.405c.233-.025 5.716-.668 8.208-4.557 1.377-2.149 1.566-4.767.562-7.78a1.713 1.713 0 0 0-2.166-1.083zM73.188 58.968c-2.39 1.028-4.368 1.188-5.883.47-2.007-.95-2.698-3.223-2.718-3.293a1.712 1.712 0 0 0-3.3.908c.041.153 1.067 3.8 4.504 5.458 1.103.532 2.304.798 3.598.798 1.584 0 3.306-.399 5.154-1.194a1.714 1.714 0 0 0-1.355-3.147z"/>
    </g>
</svg>
