<svg xmlns="http://www.w3.org/2000/svg" width="100" height="109" viewBox="0 0 100 109">
    <g fill="#812DBD" fill-rule="evenodd">
        <path d="M43.954 32.45a2.07 2.07 0 0 0-.78-.501v15.729h15.749a2.345 2.345 0 0 0-.514-.785L43.954 32.45z"/>
        <path fill-rule="nonzero" d="M38.63 49.949V31.792H2.272A2.25 2.25 0 0 0 0 34.062v72.667C0 107.98 1 109 2.273 109h54.545a2.278 2.278 0 0 0 2.273-2.27V52.22H40.9a2.271 2.271 0 0 1-2.272-2.271zm6.817 43.213H13.63a2.271 2.271 0 1 1 0-4.541h31.818a2.271 2.271 0 1 1 0 4.541zm0-13.625H13.63a2.271 2.271 0 1 1 0-4.541h31.818a2.271 2.271 0 1 1 0 4.541zm2.273-15.896a2.271 2.271 0 0 1-2.273 2.271H13.63a2.271 2.271 0 1 1 0-4.541h31.818a2.271 2.271 0 0 1 2.273 2.27z"/>
        <path d="M61.356 34.053V15.896H25a2.25 2.25 0 0 0-2.273 2.27v9.084h19.638c1.86 0 3.644.76 4.896 2.084l14.362 14.348a6.746 6.746 0 0 1 2.013 4.8v44.622h15.91a2.278 2.278 0 0 0 2.272-2.27v-54.51H63.63a2.271 2.271 0 0 1-2.273-2.271z"/>
        <path d="M66.682 16.554a2.07 2.07 0 0 0-.78-.5v15.728H81.65a2.345 2.345 0 0 0-.514-.785L66.682 16.554z"/>
        <path d="M81.811 20.428a2.271 2.271 0 0 1-2.273-2.27V0H43.182a2.25 2.25 0 0 0-2.273 2.27v9.085h24.183c1.857 0 3.64.757 4.891 2.079L84.35 27.786a6.747 6.747 0 0 1 2.013 4.801v44.621h11.364a2.278 2.278 0 0 0 2.273-2.27v-54.51H81.811z"/>
        <path d="M99.318 15.101L84.864.66a2.07 2.07 0 0 0-.78-.502v15.73h15.748a2.345 2.345 0 0 0-.514-.786z"/>
    </g>
</svg>
