<svg xmlns="http://www.w3.org/2000/svg" width="120" height="124" viewBox="0 0 120 124">
    <g fill="#812DBD" fill-rule="evenodd">
        <path d="M17.214 25.832a3.132 3.132 0 0 0 4.385-.587C30.827 13.172 44.824 6.248 60 6.248c15.176 0 29.173 6.924 38.401 18.997a3.125 3.125 0 0 0 2.49 1.228 3.122 3.122 0 0 0 2.484-5.02C92.953 7.82 77.143 0 60 0S27.047 7.82 16.625 21.454a3.122 3.122 0 0 0 .589 4.378zM93.256 42.497c0 5.38 4.383 9.756 9.77 9.756 5.388 0 9.772-4.377 9.772-9.756 0-5.38-4.384-9.757-9.771-9.757-5.388 0-9.771 4.376-9.771 9.757zM113.027 55.491l-2.485-.762a2.928 2.928 0 0 0-2.606.454l-4.91 3.67-4.908-3.67a2.926 2.926 0 0 0-2.606-.454l-2.485.762a9.66 9.66 0 0 0-6.622 9.175v14.75c0 .57.166 1.126.48 1.601l4.953 7.528v19.77a2.917 2.917 0 0 0 2.92 2.916h16.538a2.917 2.917 0 0 0 2.92-2.916v-19.77l4.954-7.528a2.91 2.91 0 0 0 .48-1.6v-14.75a9.661 9.661 0 0 0-6.623-9.176zM16.973 52.253c5.388 0 9.771-4.377 9.771-9.756 0-5.38-4.383-9.757-9.77-9.757-5.388 0-9.772 4.376-9.772 9.757 0 5.38 4.383 9.756 9.771 9.756zM26.973 55.491l-2.485-.762a2.928 2.928 0 0 0-2.606.454l-4.909 3.67-4.909-3.67a2.925 2.925 0 0 0-2.606-.454l-2.485.762a9.66 9.66 0 0 0-6.622 9.175v14.75c0 .57.166 1.126.48 1.601l4.954 7.528v19.77a2.917 2.917 0 0 0 2.92 2.916h16.537a2.917 2.917 0 0 0 2.92-2.916v-19.77l4.953-7.528a2.91 2.91 0 0 0 .48-1.6v-14.75a9.661 9.661 0 0 0-6.622-9.176z"/>
        <path d="M72.603 28.746c0-6.94-5.654-12.585-12.603-12.585-6.95 0-12.603 5.646-12.603 12.585 0 6.94 5.654 12.584 12.603 12.584 6.95 0 12.603-5.645 12.603-12.584zM73.843 47.43l-.021-.007-3.597-1.103a1.118 1.118 0 0 0-1.378.685l-7.564 20.723c-.436 1.196-2.13 1.196-2.566 0l-7.564-20.723a1.117 1.117 0 0 0-1.048-.734c-.108 0-3.922 1.15-3.922 1.15-4.595 1.529-7.665 5.783-7.665 10.592v21.922c0 .217.064.43.183.612l7.893 11.993v30.344c0 .617.5 1.116 1.117 1.116H72.29c.617 0 1.118-.5 1.118-1.116V92.54l7.892-11.993c.12-.182.184-.395.184-.612v-21.98a11.08 11.08 0 0 0-7.64-10.526z"/>
        <path d="M62.955 46.993c-.312-.34-.77-.511-1.232-.511h-3.447c-.462 0-.919.171-1.232.511a1.595 1.595 0 0 0-.21 1.881l1.842 2.774-.862 7.267 1.698 4.512a.519.519 0 0 0 .975 0l1.699-4.512-.863-7.267 1.843-2.774a1.594 1.594 0 0 0-.21-1.88z"/>
    </g>
</svg>
